<?xml version="1.0" standalone="no"?>
<!DOCTYPE svg PUBLIC "-//W3C//DTD SVG 20010904//EN"
 "http://www.w3.org/TR/2001/REC-SVG-20010904/DTD/svg10.dtd">
<svg version="1.0" xmlns="http://www.w3.org/2000/svg"
 width="180.000000pt" height="180.000000pt" viewBox="0 0 180.000000 180.000000"
 preserveAspectRatio="xMidYMid meet">

<g transform="translate(0.000000,180.000000) scale(0.100000,-0.100000)"
fill="#000000" stroke="none">
<path d="M564 1481 c-77 -74 -151 -115 -229 -126 -79 -12 -108 -51 -65 -90 15
-14 29 -16 64 -12 68 10 148 41 209 81 67 45 157 138 157 164 0 22 -30 52 -51
52 -8 0 -46 -31 -85 -69z"/>
<path d="M1192 1448 c-7 -7 -12 -24 -12 -39 0 -24 9 -33 62 -61 87 -46 158
-120 193 -201 30 -68 48 -84 85 -72 36 12 35 50 -3 128 -42 86 -129 177 -214
224 -62 35 -92 40 -111 21z"/>
<path d="M605 1241 c-61 -26 -115 -120 -115 -204 0 -70 25 -110 83 -132 42
-16 47 -16 81 0 69 33 120 202 86 286 -20 48 -82 71 -135 50z"/>
<path d="M1078 1204 c-97 -52 -86 -247 20 -350 70 -68 142 -51 188 43 45 92
30 219 -32 274 -55 48 -125 61 -176 33z"/>
<path d="M1372 723 c-11 -10 -25 -43 -31 -76 -21 -99 -124 -227 -182 -227 -10
0 -51 29 -91 65 -78 70 -159 115 -205 115 -40 -1 -100 -30 -158 -79 -37 -30
-58 -41 -84 -41 -39 0 -92 30 -115 65 -11 17 -26 25 -44 25 -64 0 -69 -50 -10
-110 51 -52 108 -79 166 -80 53 0 92 17 156 70 85 71 113 66 233 -44 88 -79
127 -93 199 -71 110 32 214 173 239 322 5 34 3 45 -14 62 -26 26 -33 26 -59 4z"/>
</g>
</svg>
